PathFileType	4	(X/Y/Z)	s09c0301.trc
DataRate	CameraRate	NumFrames	NumMarkers	Units	OrigDataRate	OrigDataStartFrame	OrigNumFrames
200	200	6	50	mm	200	1250	2000
Frame#	Time	racr			lacr			c7			jug			rlel			rdr			llel			ldr			s2			lic			ric			lasi			rasi			rpsi			lpsi			rgt			lgt			rth1			rth2			rth3			rth4			rlfc			rmfc			rsh1			rsh2			rsh3			rsh4			rlmal			rmmal			rcal			rtoe			rmt5			lth1			lth2			lth4			lth3			llfc			lmfc			llmal			lmmal			lcal			lmt5			lsh1			lsh2			lsh3			lsh4			ltoe			SBIKE			LBIKE			RBIKE			
		X1	Y1	Z1	X2	Y2	Z2	X3	Y3	Z3	X4	Y4	Z4	X5	Y5	Z5	X6	Y6	Z6	X7	Y7	Z7	X8	Y8	Z8	X9	Y9	Z9	X10	Y10	Z10	X11	Y11	Z11	X12	Y12	Z12	X13	Y13	Z13	X14	Y14	Z14	X15	Y15	Z15	X16	Y16	Z16	X17	Y17	Z17	X18	Y18	Z18	X19	Y19	Z19	X20	Y20	Z20	X21	Y21	Z21	X22	Y22	Z22	X23	Y23	Z23	X24	Y24	Z24	X25	Y25	Z25	X26	Y26	Z26	X27	Y27	Z27	X28	Y28	Z28	X29	Y29	Z29	X30	Y30	Z30	X31	Y31	Z31	X32	Y32	Z32	X33	Y33	Z33	X34	Y34	Z34	X35	Y35	Z35	X36	Y36	Z36	X37	Y37	Z37	X38	Y38	Z38	X39	Y39	Z39	X40	Y40	Z40	X41	Y41	Z41	X42	Y42	Z42	X43	Y43	Z43	X44	Y44	Z44	X45	Y45	Z45	X46	Y46	Z46	X47	Y47	Z47	X48	Y48	Z48	X49	Y49	Z49	X50	Y50	Z50	
1250	6.2500	704.415499	1356.960414	-27.374134	711.541459	1342.840848	-373.406646	699.246850	1404.963668	-191.596685	700.086747	1263.358376	-198.227597	628.397231	1100.040163	9.195565	720.460442	869.258052	-51.248610	579.372080	1098.725381	-457.844043	717.046529	887.918928	-430.399328	227.631495	1181.636212	-200.933252	368.873927	1172.552595	-345.505571	371.017935	1139.039552	-56.463771	393.045853	1108.288597	-322.529424	402.100794	1081.415016	-84.622257	263.124518	1199.361937	-137.691903	258.625188	1221.415866	-244.766328	314.147596	993.712350	-34.574003	318.432522	1063.036000	-405.576967	368.138783	867.698168	-51.929614	418.136062	797.290550	-67.283819	419.079470	709.390904	-83.721272	446.035953	808.700793	-88.706969	437.754167	619.674057	-118.942825	406.595030	601.197919	-208.576024	391.064969	530.403207	-78.459354	390.190298	441.178756	-91.895512	346.795757	365.216393	-86.039303	410.691423	438.146940	-126.424912	310.747622	268.159422	-83.470467	312.869995	277.102686	-158.565063	229.724695	262.012209	-115.564691	470.751188	150.432823	-130.277246	390.891386	166.849065	-62.920596	403.542326	954.603196	-416.634802	475.344579	908.932527	-413.708077	501.086597	929.766903	-395.053696	517.290652	829.426711	-421.472634	545.573020	735.212131	-409.420238	552.296158	710.442657	-312.823606	208.383344	589.438968	-411.972855	230.599889	585.524940	-340.234485	130.259047	612.943024	-372.502784	227.270016	468.340608	-431.011606	454.791526	695.905927	-429.920522	385.701497	644.425952	-418.636432	297.566301	633.507677	-416.042172	398.683335	620.377792	-390.010735	305.545472	421.355530	-359.571506	-64.307423	852.925609	-239.982056	21.216489	84.099955	-442.080929	21.186305	83.932630	-43.851224	
1251	6.2550	706.517320	1357.366229	-30.959446	708.084833	1344.101742	-377.849495	698.887906	1405.005788	-194.921966	699.566748	1263.557450	-201.565883	630.153437	1100.495551	8.266574	720.522942	869.114877	-51.496335	576.998079	1097.861013	-458.402530	715.964305	888.276161	-429.696932	227.082638	1181.506297	-197.450527	366.824312	1174.167150	-344.916981	372.589286	1138.295618	-56.142653	391.325534	1109.193652	-322.122702	403.248477	1080.751543	-84.406296	265.337497	1198.266415	-136.028875	259.740047	1219.453644	-243.442040	315.069221	993.475663	-33.329551	316.063501	1064.780174	-403.418245	365.751233	866.803429	-50.728270	414.013131	795.117509	-65.905174	412.797853	707.400862	-81.799071	442.006720	805.742968	-87.607227	429.133212	617.121157	-117.129997	395.597007	598.828219	-208.129506	382.664176	527.991011	-77.173515	382.701156	438.757184	-90.387858	339.866982	362.322323	-84.881531	403.157447	435.919319	-125.038758	304.649425	265.691112	-82.843968	306.758879	274.086391	-157.929718	223.963415	261.215185	-115.379391	461.416547	142.656714	-130.235576	382.127675	161.407870	-62.766786	404.426355	958.850943	-414.657915	477.319203	914.943120	-412.000264	502.571620	936.166366	-393.141547	521.270678	836.560293	-420.637406	552.307188	742.057196	-408.333100	558.753203	718.281388	-311.025396	215.860784	593.950065	-411.837365	237.711200	591.478497	-339.499203	136.733412	616.417602	-372.630051	236.611940	473.473738	-431.175126	461.916940	702.041821	-428.891458	392.989747	650.307981	-417.898549	304.841876	639.064815	-415.643111	405.962881	626.407827	-389.218588	315.694313	428.295172	-360.175139	-64.353345	852.915425	-240.006184	21.210628	84.099216	-442.076845	21.191178	83.924925	-43.833215	
1252	6.2600	708.514530	1357.609394	-34.794806	704.582928	1345.243478	-382.299833	698.534707	1405.283748	-198.303490	699.122923	1263.853164	-205.204714	631.952968	1100.906364	7.047468	720.761255	868.826259	-51.770187	574.588660	1097.011324	-458.947024	715.595667	888.597165	-429.659384	226.492041	1181.664865	-193.502854	363.585336	1174.671857	-342.911129	374.716104	1137.567360	-55.290136	389.717670	1109.984490	-322.035480	404.432086	1080.132659	-84.344296	266.018347	1198.029953	-132.931995	259.037657	1219.744122	-240.418530	315.994502	993.293725	-32.056684	313.210141	1066.446575	-401.660832	363.474097	866.212188	-49.653366	410.033173	793.237896	-64.426444	406.617166	705.451557	-79.611085	438.103868	803.100285	-86.414696	420.672252	615.107774	-115.163117	386.343749	596.731744	-206.681139	373.981557	525.810678	-76.090141	375.101893	436.505937	-88.919229	332.745153	359.993009	-83.625532	395.751373	433.974073	-123.358090	298.380794	263.623860	-81.951669	300.365352	271.396104	-157.144761	217.888905	260.924972	-115.121751	451.683013	135.559517	-130.121999	373.058287	156.490934	-62.677320	405.314350	963.108326	-412.853987	479.174904	920.964761	-410.320180	503.940241	942.611520	-391.297024	524.869056	843.500227	-418.863841	558.686566	749.031944	-407.648628	565.681336	724.737462	-310.480270	223.451813	597.847817	-411.702881	245.046842	595.935774	-339.216127	143.460511	619.057246	-372.745068	246.290431	478.273640	-431.242570	469.030270	708.207324	-427.887100	400.411139	656.009240	-417.181352	312.326141	644.185419	-415.276845	413.434702	632.052744	-388.363389	326.284852	434.417669	-360.048521	-64.371309	852.931335	-239.958832	21.197714	84.091230	-442.072541	21.187386	83.937589	-43.844184	
1253	6.2650	710.479990	1357.634729	-38.769123	700.964994	1346.460303	-386.799304	698.075913	1405.274057	-201.879149	698.533039	1264.104939	-208.840991	633.761898	1101.335549	5.630559	721.189724	868.526586	-52.019752	572.301082	1096.096330	-459.602983	715.536445	889.040353	-429.992632	225.930383	1181.764052	-189.636728	360.794558	1175.511319	-341.564844	376.485800	1136.808269	-54.978285	387.803376	1111.048901	-322.393138	405.587950	1079.407923	-84.402661	266.750541	1198.226296	-129.748213	257.917133	1219.879680	-237.062725	316.971955	992.995440	-30.847060	311.246879	1068.149594	-399.227839	361.410185	865.847710	-48.627122	406.256580	791.614110	-63.019619	400.813388	703.754884	-77.785618	434.430634	800.705754	-85.201858	412.547914	613.107272	-113.082081	377.717225	595.024414	-205.155160	366.312132	524.245047	-73.926775	367.583560	434.955792	-87.003652	325.438844	358.072870	-82.344043	388.451477	432.350645	-121.461075	291.820310	262.136540	-81.098361	293.938382	269.428340	-156.463368	211.569363	261.047977	-114.661609	441.678814	129.176879	-129.956971	363.670633	152.202069	-62.466153	406.148085	967.262804	-411.049782	481.001344	926.753767	-408.569559	505.209271	949.028839	-389.566424	528.484082	850.501054	-417.325434	565.010718	756.198021	-406.576698	572.372739	732.933573	-308.024340	231.209516	601.089703	-411.531707	252.535901	599.742048	-339.047299	150.324843	620.938190	-372.818936	256.189496	482.370345	-431.414209	476.064298	714.447358	-426.795140	407.769183	661.479601	-416.493153	319.781022	648.961582	-414.863819	420.895548	637.722439	-387.791034	337.053332	440.066096	-360.236883	-64.384578	852.934049	-239.889487	21.212080	84.120021	-442.052383	21.188160	83.935455	-43.839586	
1254	6.2700	712.334280	1357.608013	-42.822631	697.354537	1347.430480	-391.273146	697.771356	1405.292101	-205.951139	698.329487	1264.173469	-213.105182	635.446485	1101.701723	3.977570	721.435888	868.122303	-52.323743	570.134412	1095.148842	-460.157007	715.382641	889.382400	-430.046479	225.710469	1181.994489	-185.815770	358.698144	1177.122724	-341.360127	378.598987	1136.028015	-54.010499	386.143160	1111.950258	-322.567146	406.681865	1078.712526	-84.610869	267.109493	1198.247233	-126.503933	257.354279	1220.254171	-233.180106	318.009875	992.662245	-29.720779	308.883178	1069.658931	-397.225952	359.572973	865.646648	-47.589032	402.716233	790.344238	-61.597476	395.313758	702.642070	-76.018489	430.957693	798.683251	-83.895676	404.800840	611.337340	-110.982761	369.881007	593.674553	-203.550947	357.967611	522.421832	-72.616607	359.903196	433.186711	-85.399249	317.954221	356.301336	-81.013213	381.091971	430.832306	-119.556503	284.990999	260.558555	-80.370653	287.047607	267.679912	-155.609985	204.838578	261.363238	-114.260037	431.443913	123.728120	-129.529401	353.933282	148.691864	-62.309371	406.955678	971.303698	-409.329194	482.721133	932.484494	-406.898931	506.423878	955.376460	-387.777513	531.900057	857.415267	-415.874060	571.068999	763.472454	-405.552845	578.407499	739.635172	-306.980904	239.008403	603.724311	-411.322730	260.004226	602.837965	-338.891913	157.400286	622.006954	-372.857371	266.194174	485.846524	-431.478723	482.781544	720.621219	-425.792845	415.060348	666.841063	-415.866995	327.237176	653.206146	-414.442561	428.365539	642.999129	-387.134290	347.945571	445.177902	-360.283580	-64.358268	852.965915	-239.830625	21.209294	84.161176	-442.051407	21.193886	83.944647	-43.833312	
1255	6.2750	714.132139	1357.556730	-46.946495	693.823533	1348.258838	-395.734347	697.566042	1405.284390	-209.627259	698.114713	1264.310387	-217.525815	637.781748	1102.151289	2.389186	721.572194	867.949286	-52.484411	568.010698	1094.131825	-460.800427	715.444075	889.674406	-430.321755	225.429719	1181.941788	-182.415661	356.266616	1178.347105	-340.732314	380.662515	1135.394747	-53.656879	384.260244	1113.326392	-322.607476	407.792786	1078.021920	-84.974425	267.446514	1198.169546	-123.368102	256.491004	1220.607362	-229.663887	319.071937	992.404919	-28.621698	306.517250	1071.137360	-395.347994	357.903075	865.582076	-46.713145	399.592452	789.019153	-60.051539	390.182297	701.627507	-74.033147	427.799740	796.745773	-82.503817	397.485527	609.915844	-108.833691	362.876497	592.497763	-201.958324	350.213556	521.068776	-70.796587	352.294296	431.997700	-83.615775	310.319869	354.971238	-79.823851	373.350281	429.517549	-117.468789	277.663823	259.510382	-79.616942	279.624935	266.696590	-154.827273	197.805278	262.078489	-113.789581	420.864263	119.131691	-129.159703	343.990529	145.822324	-62.113311	407.623143	975.220125	-407.813742	484.263681	938.070024	-405.282161	507.384830	961.429292	-386.068476	535.120823	864.154147	-414.158721	577.061439	770.847913	-404.889584	584.435082	746.702847	-305.661322	246.898849	605.686304	-411.116946	267.718337	605.270407	-338.634232	164.426633	622.438411	-372.801346	276.430770	488.461476	-431.665661	489.192611	726.694967	-424.769438	422.253608	671.888075	-415.211468	334.637107	657.002160	-413.937913	435.779135	648.075743	-386.676159	358.984743	449.560357	-360.322018	-64.334979	852.987614	-239.759384	21.223958	84.202718	-442.054928	21.197825	83.938922	-43.813626	
